<svg xmlns="http://www.w3.org/2000/svg" version="1.1" xmlns:xlink="http://www.w3.org/1999/xlink" xmlns:svgjs="http://svgjs.dev/svgjs" width="2500" height="3000" preserveAspectRatio="none" viewBox="0 0 2500 3000">
    <g mask="url(&quot;#SvgjsMask1812&quot;)" fill="none">
        <rect width="2500" height="3000" x="0" y="0" fill="url(&quot;#SvgjsLinearGradient1813&quot;)"></rect>
        <path d="M2500 0L1439.96 0L2500 1071.82z" fill="rgba(255, 255, 255, .1)"></path>
        <path d="M1439.96 0L2500 1071.82L2500 1981.26L1434.57 0z" fill="rgba(255, 255, 255, .075)"></path>
        <path d="M1434.57 0L2500 1981.26L2500 2372.63L1335.48 0z" fill="rgba(255, 255, 255, .05)"></path>
        <path d="M1335.48 0L2500 2372.63L2500 2494.62L1190.03 0z" fill="rgba(255, 255, 255, .025)"></path>
        <path d="M0 3000L112.11 3000L0 2816.45z" fill="rgba(0, 0, 0, .1)"></path>
        <path d="M0 2816.45L112.11 3000L754.57 3000L0 1889.62z" fill="rgba(0, 0, 0, .075)"></path>
        <path d="M0 1889.62L754.57 3000L1229.81 3000L0 1130.07z" fill="rgba(0, 0, 0, .05)"></path>
        <path d="M0 1130.07L1229.81 3000L1753.42 3000L0 388.31999999999994z" fill="rgba(0, 0, 0, .025)"></path>
    </g>
    <defs>
        <mask id="SvgjsMask1812">
            <rect width="2500" height="3000" fill="#ffffff"></rect>
        </mask>
        <linearGradient x1="-5%" y1="4.17%" x2="105%" y2="95.83%" gradientUnits="userSpaceOnUse" id="SvgjsLinearGradient1813">
            <stop stop-color="#0e2a47" offset="0"></stop>
            <stop stop-color="rgba(204, 226, 255, 1)" offset="1"></stop>
        </linearGradient>
    </defs>
</svg>